<?xml version="1.0" encoding="utf-8"?>
<!-- Generator: Adobe Illustrator 24.0.0, SVG Export Plug-In . SVG Version: 6.00 Build 0)  -->
<svg version="1.1" id="Слой_1" xmlns="http://www.w3.org/2000/svg" xmlns:xlink="http://www.w3.org/1999/xlink" x="0px" y="0px"
	 viewBox="0 0 651.2 128.9" style="enable-background:new 0 0 651.2 128.9;" xml:space="preserve">
<style type="text/css">
	.st0{fill:#C20E1A;}
</style>
<g>
	<g>
		<path class="st0" d="M68.6,81.6l24.7-42.8l7,4L75.6,85.6l28.9-16.7l4,7L79.6,92.6h43c4.2-8.5,6.5-18.1,6.5-28.2l0,0
			c0-34.3-26.7-62.3-60.5-64.4C68.6,0,68.6,81.6,68.6,81.6z"/>
		<path class="st0" d="M11.2,100.7c11.6,17,31.2,28.2,53.3,28.2l0,0c22.2,0,41.7-11.2,53.3-28.2H11.2z"/>
		<path class="st0" d="M54.8,92.7L27.5,65.4l5.7-5.7L60.5,87V0.1C26.8,2.2,0,30.2,0,64.5l0,0c0,10.1,2.3,19.7,6.5,28.2H54.8z"/>
	</g>
	<g>
		<path d="M197.7,52.8c2.3,7.3,4.8,16.4,6.8,24.4h0.2c2.2-8,4.8-17,7.1-24.4l9.3-28.5h26.2v72.1H231v-29c0-8.9,0.1-21.5,0.3-31.2
			h-0.2c-2.3,8.1-6,20.7-8.2,26.8l-11.6,33.4h-15.1l-11.3-33.3c-1.1-3.3-6.4-20.3-8.3-26.9h-0.2c0.2,9.7,0.4,22.3,0.4,31.2v29h-15.4
			V24.3h27.3L197.7,52.8z"/>
		<path d="M272.2,74.2c0.4,7,6.4,11.9,16.1,11.9c5.7,0,11.1-1.3,16-4.1l0.3,12.2c-4.5,2.3-11.1,3.6-18.2,3.6
			c-18.2,0-30.4-10.3-30.4-28.2c0-16.4,11.3-27.9,28.1-27.9c15.8,0,24.7,9.3,24.7,28.7c0,0.8-0.1,3.1-0.2,3.8H272.2z M294.2,64.1
			c0-8-4-11.5-10.4-11.5c-5.9,0-10.8,3.9-11.7,11.5H294.2z"/>
		<path d="M332.9,96.4h-16.3v-78h16.3V96.4z"/>
		<path d="M379.4,56c-5-2.3-9.3-3.3-13.8-3.3c-4.6,0-7.7,1.9-7.7,5.1c0,3,1.8,4.1,9.8,6.3c9.1,2.5,16.1,5.8,16.1,16.2
			c0,11.3-9.3,17.5-23.3,17.5c-5.6,0-12.1-0.8-17.9-2.8l0.8-12.2c5.8,2.7,11.6,3.8,16.4,3.8c4.3,0,8.1-1.8,8.1-5.1
			c0-3.1-1.7-4.3-10.3-6.9c-10.8-3.1-15.3-7.1-15.3-15.8c0-10.4,8.6-17,22.4-17c6.3,0,11.6,0.8,16,2.7L379.4,56z"/>
		<path d="M443,43l-21.3,56.6c-4.8,12.8-11.9,19.7-24,19.7c-3.6,0-7.1-0.5-10.1-1.3l1.1-12.2c2.6,0.7,4.6,1,6.9,1
			c3.9,0,7.4-2.1,9.4-8.6l-20.7-55.3h17.6l11.7,40.6l12.7-40.6L443,43L443,43z"/>
		<path d="M445.9,43h10.7V31.3l15.3-5.2v16.8h12.8v11.5h-12.8v21c0,5.6,1.1,9.9,7.7,9.9c1.9,0,3.8-0.2,5.5-0.7l0.4,11.4
			c-3.1,0.8-7,1.2-10.4,1.2c-13.2,0-19-6-19-19.7v-23h-10.2V43z"/>
		<path d="M505.3,74.2c0.4,7,6.4,11.9,16.1,11.9c5.7,0,11.1-1.3,16-4.1l0.3,12.2c-4.5,2.3-11.1,3.6-18.2,3.6
			c-18.2,0-30.4-10.3-30.4-28.2c0-16.4,11.3-27.9,28.1-27.9c15.8,0,24.7,9.3,24.7,28.7c0,0.8-0.1,3.1-0.2,3.8H505.3z M527.3,64.1
			c0-8-4-11.5-10.4-11.5c-5.9,0-10.8,3.9-11.7,11.5H527.3z"/>
		<path d="M587.8,56c-2.9-1.1-5.8-1.8-9.1-1.8c-9.2,0-14.7,6.2-14.7,15.5c0,9.4,5.2,15.3,15,15.3c3.2,0,6.1-0.4,9.4-1.9l0.6,12.3
			c-4.2,1.3-7.6,1.9-12.3,1.9c-17.9,0-29.4-10.5-29.4-27.6c0-16.8,12.6-27.4,29-27.4c5,0,8.9,0.4,12.6,1.7L587.8,56z"/>
		<path d="M613.5,52c3.9-6.1,9.9-10.3,17.6-10.3c13.6,0,20.1,8.7,20.1,23.2v31.5h-16.1V70.9c0-10-1.4-16.2-9.3-16.2
			c-9.3,0-12.1,8.3-12.1,18.2v23.5h-16.1v-78h16v21.4c0,3.7-0.1,8.5-0.3,12.3L613.5,52L613.5,52z"/>
	</g>
</g>
</svg>
