<svg id="logo-footer" xmlns="http://www.w3.org/2000/svg" width="232.397" height="39.969" viewBox="0 0 232.397 39.969">
  <g id="Group_2708" data-name="Group 2708" transform="translate(52 4.969)">
    <g id="Group_2699" data-name="Group 2699">
      <path id="Path_2442" data-name="Path 2442" d="M588.815,698.889h-4.279V680.962l-6.475,9.624h-2.418l-6.475-9.624v17.927h-4.316V672.072h3.479l8.54,12.57,8.54-12.57h3.4Z" transform="translate(-564.852 -672.072)" fill="#272730"/>
    </g>
    <g id="Group_2700" data-name="Group 2700" transform="translate(27.535 5.673)">
      <path id="Path_2443" data-name="Path 2443" d="M600.815,698.788c-5.339,0-10.742-3.7-10.742-10.779,0-7.379,5.606-10.741,10.816-10.741,4.831,0,10.23,3.073,10.667,9.823a5.707,5.707,0,0,1-.081,1.836l-.044.206H594.281c.167,3.781,3.943,5.866,6.571,5.866a6.272,6.272,0,0,0,5.817-3.241l.074-.14h4.318l-.12.346A10.424,10.424,0,0,1,600.815,698.788Zm-6.322-13.218H607.1c-.691-2.857-2.99-4.552-6.213-4.552C599.64,681.018,595.561,681.353,594.492,685.57Z" transform="translate(-590.073 -677.268)" fill="#272730"/>
    </g>
    <g id="Group_2701" data-name="Group 2701" transform="translate(52.778)">
      <path id="Path_2444" data-name="Path 2444" d="M617.4,698.889h-4.2V672.072h4.2Z" transform="translate(-613.194 -672.072)" fill="#272730"/>
    </g>
    <g id="Group_2702" data-name="Group 2702" transform="translate(59.976 5.56)">
      <path id="Path_2445" data-name="Path 2445" d="M628.439,698.759c-5.175,0-8.4-2.549-8.637-6.82l-.015-.274h4.2l.015.243c.153,2.321,2.5,3.138,4.512,3.138h.108c1.022-.022,4.363-.277,4.363-2.706.032-1.888-2.523-2.392-4.671-2.483-5.374-.222-8.213-2.325-8.213-6.083,0-4.873,4.327-6.609,8.375-6.609,4.838,0,7.871,2.324,8.111,6.217l.017.276h-4.156l-.024-.234c-.187-1.794-2.221-2.434-4.061-2.434-1.98,0-4.1.711-4.1,2.708,0,1.942,1.822,2.193,4.024,2.307l.465.025c5.6.385,8.433,2.52,8.433,6.346C637.19,697.082,632.669,698.759,628.439,698.759Z" transform="translate(-619.787 -677.165)" fill="#272730"/>
    </g>
    <g id="Group_2703" data-name="Group 2703" transform="translate(77.986 5.673)">
      <path id="Path_2446" data-name="Path 2446" d="M645.824,704.685H641.36l2.956-7.583-8.032-19.834h4.467l3.748,9.179,2.056,5.961,2.118-5.92,3.559-9.22H656.7Z" transform="translate(-636.283 -677.268)" fill="#272730"/>
    </g>
    <g id="Group_2704" data-name="Group 2704" transform="translate(99.523 1.409)">
      <path id="Path_2447" data-name="Path 2447" d="M665.871,698.878c-2.414,0-4.036-.485-5.148-1.514s-1.67-2.62-1.67-4.826V681.377H656.01v-3.45h3.043v-3.748l4.2-.816v4.564h4.471v3.45h-4.471v11.2a2.8,2.8,0,0,0,.686,2.161c.683.62,1.886.641,3.611.473l.286-.027v3.607l-.241.02C666.981,698.855,666.407,698.878,665.871,698.878Z" transform="translate(-656.01 -673.363)" fill="#272730"/>
    </g>
    <g id="Group_2705" data-name="Group 2705" transform="translate(112.973 5.673)">
      <path id="Path_2448" data-name="Path 2448" d="M679.07,698.788c-5.338,0-10.741-3.7-10.741-10.779,0-7.379,5.606-10.741,10.816-10.741,4.831,0,10.229,3.073,10.665,9.823a5.742,5.742,0,0,1-.08,1.836l-.045.206H672.537c.166,3.781,3.942,5.866,6.571,5.866a6.274,6.274,0,0,0,5.817-3.241l.073-.14h4.318l-.12.346A10.423,10.423,0,0,1,679.07,698.788Zm-6.323-13.218h12.611c-.692-2.857-2.991-4.552-6.213-4.552C677.9,681.018,673.816,681.353,672.747,685.57Z" transform="translate(-668.329 -677.268)" fill="#272730"/>
    </g>
    <g id="Group_2706" data-name="Group 2706" transform="translate(136.637 5.635)">
      <path id="Path_2449" data-name="Path 2449" d="M700.729,698.717a11.016,11.016,0,0,1-7.73-3.022,10.544,10.544,0,0,1-3-7.721c0-7.379,5.607-10.741,10.817-10.741,4.459,0,9.438,2.563,10.511,8.289l.058.308h-4.306l-.053-.189a6.238,6.238,0,0,0-6.173-4.619,6.513,6.513,0,0,0-6.651,6.952c0,4.8,3.467,6.992,6.689,6.992a6.155,6.155,0,0,0,6.135-4.619l.053-.19h4.306l-.058.309c-1.14,6.036-6.333,8.218-10.434,8.25Z" transform="translate(-690.004 -677.233)" fill="#272730"/>
    </g>
    <g id="Group_2707" data-name="Group 2707" transform="translate(161.13)">
      <path id="Path_2450" data-name="Path 2450" d="M731.705,698.889h-4.2V687.734c0-3.669-.857-6.128-5.04-6.2a5.539,5.539,0,0,0-4.146,1.5,6.281,6.281,0,0,0-1.713,4.553v11.305h-4.165V672.072H716.6v8c1.39-1.6,3.268-2.323,5.976-2.323,5.885,0,9.126,3.534,9.126,9.953Z" transform="translate(-712.438 -672.072)" fill="#272730"/>
    </g>
  </g>
  <g id="Group_2709" data-name="Group 2709">
    <path id="Path_2451" data-name="Path 2451" d="M538.581,698.709l-8.687-8.686,1.592-1.59,8.686,8.686V669.867A20,20,0,0,0,521.3,689.835h0a19.92,19.92,0,0,0,2.074,8.874Z" transform="translate(-521.296 -669.867)" fill="red"/>
    <path id="Path_2452" data-name="Path 2452" d="M538.724,695.635l7.895-13.673,1.949,1.125-7.895,13.673,9.356-5.4,1.125,1.949-9.359,5.4h13.73a19.905,19.905,0,0,0,2.074-8.874h0a20,20,0,0,0-18.875-19.969Z" transform="translate(-517.599 -669.867)" fill="red"/>
    <path id="Path_2453" data-name="Path 2453" d="M524.083,695.519a19.982,19.982,0,0,0,16.622,8.875h0a19.98,19.98,0,0,0,16.622-8.875Z" transform="translate(-520.705 -664.426)" fill="red"/>
  </g>
</svg>
