<svg xmlns="http://www.w3.org/2000/svg" width="501" height="500.636" viewBox="0 0 501 500.636">
  <g id="Group_3050" data-name="Group 3050" transform="translate(0.5 0.528)">
    <path id="Path_2451" data-name="Path 2451" d="M737.358,1030.4,628.765,921.822l19.9-19.878,108.575,108.575V669.867C625.705,677.155,521.3,786.109,521.3,919.473h0A249,249,0,0,0,547.22,1030.4Z" transform="translate(-521.296 -669.867)" fill="none" stroke="red" stroke-width="1"/>
    <path id="Path_2452" data-name="Path 2452" d="M538.724,991.973l98.682-170.909,24.363,14.061-98.682,170.909L680.043,938.5,694.1,962.868,577.118,1030.4H748.74a248.82,248.82,0,0,0,25.924-110.925h0c0-133.364-104.409-242.318-235.94-249.606Z" transform="translate(-274.664 -669.867)" fill="none" stroke="red" stroke-width="1"/>
    <path id="Path_2453" data-name="Path 2453" d="M524.083,695.518a249.774,249.774,0,0,0,207.773,110.94h0a249.752,249.752,0,0,0,207.772-110.94Z" transform="translate(-481.855 -306.85)" fill="none" stroke="red" stroke-width="1"/>
  </g>
</svg>
