<svg id="link" xmlns="http://www.w3.org/2000/svg" width="12" height="12.024" viewBox="0 0 12 12.024">
  <g id="link-2" data-name="link" opacity="0.6">
    <path id="Path_120" data-name="Path 120" d="M600.5,364.5h-.146l-.024-.024-.024.024H595.5V366h3.343l-3.88,3.976,1.074,1.048L600,366.962V370.5h1.5v-5A1,1,0,0,0,600.5,364.5Z" transform="translate(-589.5 -364.476)" fill="#2b2e3f"/>
    <path id="Path_121" data-name="Path 121" d="M600,375h-9v-9h2.5v-1.5h-3a1,1,0,0,0-1,1v10a1,1,0,0,0,1,1h10a1,1,0,0,0,1-1v-3H600Z" transform="translate(-589.5 -364.476)" fill="#2b2e3f"/>
  </g>
</svg>
