<svg viewBox="0 0 101 101" fill="none" xmlns="http://www.w3.org/2000/svg">
<path d="M53.6318 63.9876L72.9705 30.4255L78.4512 33.5621L59.1124 67.1242L81.7395 54.0287L84.8713 59.5179L62.2442 72.6133H95.9108C99.1992 65.948 101 58.42 101 50.5C101 23.6033 80.0953 1.64674 53.6318 0V63.9876Z" fill="#E30613"/>
<path d="M8.76898 78.8866C17.8512 92.2173 33.1969 101 50.5 101C67.8814 101 83.1488 92.2173 92.231 78.8866H8.76898Z" fill="#E30613"/>
<path d="M42.9054 72.6133L21.4527 51.2057L25.9155 46.736L47.2899 68.1436V0C20.9047 1.64674 0 23.6033 0 50.5C0 58.42 1.80078 65.8696 5.08915 72.6133H42.9054Z" fill="#E30613"/>
</svg>
