<svg id="Group_2838" data-name="Group 2838" xmlns="http://www.w3.org/2000/svg" width="32" height="32" viewBox="0 0 32 32">
  <circle id="Ellipse_8" data-name="Ellipse 8" cx="16" cy="16" r="16" fill="red"/>
  <g id="Polygon_1" data-name="Polygon 1" transform="translate(6.675 12.25) rotate(-30)" fill="#fff">
    <path d="M 11.24755001068115 10.50000190734863 L 1.752450466156006 10.50000190734863 C 1.490380525588989 10.50000190734863 1.361450433731079 10.32363224029541 1.318180441856384 10.247802734375 C 1.274910449981689 10.17198276519775 1.188660502433777 9.97125244140625 1.321980476379395 9.74564266204834 L 6.069530487060547 1.711312294006348 C 6.200540542602539 1.489612340927124 6.414210319519043 1.46568238735199 6.500000476837158 1.46568238735199 C 6.585780620574951 1.46568238735199 6.799460411071777 1.489612340927124 6.93047046661377 1.71132230758667 L 11.67802047729492 9.745632171630859 C 11.81134033203125 9.97125244140625 11.72509002685547 10.17198276519775 11.6818208694458 10.247802734375 C 11.63855075836182 10.32363224029541 11.50962066650391 10.50000190734863 11.24755001068115 10.50000190734863 Z" stroke="none"/>
    <path d="M 6.500000476837158 1.965682029724121 L 1.752442359924316 9.999998092651367 C 1.752443313598633 10 1.752444267272949 10.00000095367432 1.752445220947266 10.00000190734863 C 1.752447128295898 10.00000190734863 1.752449035644531 10.00000190734863 1.752450942993164 10.00000190734863 L 11.24755096435547 10.00000190734863 L 6.50001049041748 1.965692520141602 C 6.500008583068848 1.965688705444336 6.500006675720215 1.965685844421387 6.500004768371582 1.965682029724121 C 6.500003337860107 1.965682029724121 6.500001907348633 1.965682029724121 6.500000476837158 1.965682029724121 M 6.499996662139893 0.9656801223754883 C 6.833695411682129 0.9656801223754883 7.16739559173584 1.129437446594238 7.360930442810059 1.456952095031738 L 12.10848045349121 9.49127197265625 C 12.50239086151123 10.15788269042969 12.0218505859375 11.00000190734863 11.24755096435547 11.00000190734863 L 1.752450942993164 11.00000190734863 C 0.9781503677368164 11.00000190734863 0.4976100921630859 10.15788269042969 0.8915205001831055 9.49127197265625 L 5.639070510864258 1.456952095031738 C 5.832600593566895 1.129437446594238 6.166297912597656 0.9656801223754883 6.499996662139893 0.9656801223754883 Z" stroke="none" fill="#fff"/>
  </g>
</svg>
